<?xml version="1.0" standalone="no"?>
<!DOCTYPE svg PUBLIC "-//W3C//DTD SVG 20010904//EN"
 "http://www.w3.org/TR/2001/REC-SVG-20010904/DTD/svg10.dtd">
<svg version="1.0" xmlns="http://www.w3.org/2000/svg"
 width="221.000000pt" height="156.000000pt" viewBox="0 0 221.000000 156.000000"
 preserveAspectRatio="xMidYMid meet" >
<metadata>
Created by potrace 1.15, written by Peter Selinger 2001-2017
</metadata>
<g transform="translate(0.000000,156.000000) scale(0.100000,-0.100000)"
fill="#ffffff" stroke="none">
<path d="M370 1411 c-155 -50 -230 -127 -230 -233 1 -225 430 -485 950 -575
138 -24 482 -25 580 -1 l65 15 -155 -5 c-309 -10 -650 64 -927 200 l-103 51 0
163 0 164 535 0 535 0 0 -255 0 -255 34 0 c70 0 66 -19 66 311 l0 299 -635 0
-635 0 -2 -181 -3 -182 -61 59 c-82 80 -115 139 -121 217 -5 58 -3 65 28 111
24 35 52 60 94 83 68 37 65 40 -15 14z"/>
<path d="M1934 1013 c53 -53 76 -103 76 -163 0 -122 -102 -214 -311 -284 -141
-47 -255 -66 -435 -73 -169 -6 -355 8 -508 38 -105 21 -301 83 -325 102 -12 9
-13 9 -7 -1 21 -35 238 -119 405 -157 57 -13 105 -25 106 -27 1 -2 -1 -13 -6
-25 -6 -17 -16 -23 -39 -23 -28 0 -31 3 -26 23 l6 22 -11 -22 c-9 -18 -21 -23
-50 -23 -33 0 -37 2 -33 23 l5 22 -10 -22 c-8 -18 -19 -23 -47 -23 -34 0 -36
1 -30 28 6 26 6 26 -9 8 -8 -11 -15 -23 -15 -28 0 -4 -23 -8 -51 -8 l-52 0 6
56 c3 31 4 55 2 53 -11 -12 -155 -270 -155 -279 0 -7 210 -10 660 -10 412 0
660 4 660 10 0 5 -18 59 -39 119 l-40 111 42 10 c156 40 267 91 334 153 134
123 104 269 -80 395 -61 42 -69 40 -23 -5z"/>
<path d="M1340 925 c0 -60 3 -75 15 -75 12 0 15 13 15 55 0 54 0 55 30 55 30
0 30 -1 30 -55 0 -48 2 -55 20 -55 18 0 20 7 20 55 0 48 2 55 20 55 18 0 20
-7 20 -55 0 -48 2 -55 20 -55 18 0 20 7 20 55 0 81 -15 93 -124 94 l-86 0 0
-74z"/>
</g>
</svg>
